<?xml version="1.0" standalone="no"?>
<!DOCTYPE svg PUBLIC "-//W3C//DTD SVG 20010904//EN"
 "http://www.w3.org/TR/2001/REC-SVG-20010904/DTD/svg10.dtd">
<svg version="1.0" xmlns="http://www.w3.org/2000/svg"
 width="512.000000pt" height="512.000000pt" viewBox="0 0 512.000000 512.000000"
 preserveAspectRatio="xMidYMid meet">

<g transform="translate(0.000000,512.000000) scale(0.100000,-0.100000)"
fill="#000000" stroke="none">
<path d="M3940 4946 c-36 -8 -94 -26 -130 -40 -36 -15 -297 -85 -580 -156
-496 -124 -517 -128 -570 -118 -114 21 -302 -8 -415 -64 -22 -11 -67 -39 -100
-63 -60 -42 -60 -42 -988 -274 -511 -127 -942 -238 -958 -246 -16 -9 -31 -25
-34 -38 -3 -12 -4 -657 -3 -1433 l3 -1410 37 -76 c45 -91 103 -147 196 -191
l67 -32 448 -3 447 -3 0 -216 c0 -140 4 -230 12 -257 16 -55 99 -138 154 -154
31 -9 284 -12 1036 -12 1128 0 1055 -5 1131 80 24 26 49 66 55 88 8 25 12 117
12 255 l0 216 448 3 447 3 67 32 c93 44 151 100 196 191 l37 76 0 1295 0 1296
-28 59 c-35 75 -84 136 -140 173 l-44 29 18 51 c47 139 49 308 6 445 -38 120
-90 203 -186 298 -94 93 -175 142 -296 180 -90 27 -254 35 -345 16z m321 -178
c129 -47 216 -117 290 -230 85 -133 109 -313 61 -465 l-23 -73 -133 0 -134 0
-4 109 c-2 92 -6 114 -24 137 -44 60 -67 69 -185 72 l-109 4 0 79 0 79 160 0
160 0 0 80 0 80 -80 0 -80 0 0 40 0 40 -80 0 -80 0 0 -39 c0 -36 -2 -39 -35
-45 -47 -9 -102 -59 -116 -105 -6 -21 -9 -86 -7 -153 2 -99 6 -121 24 -144 44
-60 67 -69 185 -72 l109 -4 0 -79 0 -79 -294 0 -293 0 -24 73 c-31 93 -33 243
-5 327 69 207 235 353 446 394 60 11 206 -3 271 -26z m-793 -135 c-1 -5 -18
-38 -36 -75 -71 -146 -92 -341 -53 -490 l17 -68 -56 0 -57 0 -21 84 c-38 157
-127 302 -237 388 -31 24 -50 45 -43 47 27 9 464 119 476 120 8 1 12 -2 10 -6z
m-737 -182 c164 -52 309 -197 359 -359 11 -35 20 -70 20 -78 0 -12 -52 -14
-315 -14 l-315 0 0 80 0 80 160 0 160 0 0 80 0 80 -80 0 -80 0 0 40 0 40 -80
0 -80 0 0 -39 c0 -36 -2 -39 -35 -45 -43 -8 -94 -50 -111 -93 -9 -20 -14 -70
-14 -128 l0 -95 -155 0 c-126 0 -155 3 -155 14 0 36 44 149 79 203 140 216
399 311 642 234z m-821 -205 c0 -2 -11 -32 -24 -67 -13 -35 -29 -90 -36 -121
l-11 -58 -462 1 -462 1 485 123 c475 121 510 129 510 121z m2683 -412 c65 -11
136 -63 171 -124 l31 -55 3 -307 4 -308 -521 0 -521 0 0 68 c-1 112 -44 185
-135 228 l-50 24 -1015 0 c-1000 0 -1016 -1 -1060 -21 -60 -27 -88 -54 -116
-114 l-24 -50 0 -1108 0 -1108 -428 3 -428 3 -49 26 c-62 32 -110 93 -124 159
-8 35 -11 454 -11 1370 l0 1320 2118 0 c1164 0 2134 -3 2155 -6z m-1040 -645
c14 -6 30 -22 36 -36 16 -34 16 -2752 0 -2786 -6 -14 -22 -30 -36 -36 -17 -8
-307 -11 -1004 -11 l-980 0 -24 25 -25 24 0 1391 0 1391 25 24 24 25 980 0
c697 0 987 -3 1004 -11z m1247 -388 l0 -80 -287 -3 c-278 -3 -289 -4 -331 -26
-63 -33 -114 -84 -148 -144 -26 -48 -29 -62 -29 -148 0 -80 4 -102 23 -138 33
-63 84 -114 144 -148 l53 -29 288 -3 287 -3 0 -80 0 -79 -520 0 -520 0 0 480
0 480 520 0 520 0 0 -79z m0 -401 l0 -160 -256 0 c-286 0 -302 3 -352 68 -38
50 -39 133 0 184 50 65 63 68 351 68 l257 0 0 -160z m-2 -947 l-3 -308 -31
-55 c-35 -61 -106 -113 -171 -124 -21 -3 -217 -6 -435 -6 l-398 0 0 400 0 400
521 0 521 0 -4 -307z"/>
<path d="M560 3600 l0 -80 80 0 80 0 0 80 0 80 -80 0 -80 0 0 -80z"/>
<path d="M4400 3600 l0 -80 80 0 80 0 0 80 0 80 -80 0 -80 0 0 -80z"/>
<path d="M560 1200 l0 -80 80 0 80 0 0 80 0 80 -80 0 -80 0 0 -80z"/>
<path d="M1986 3029 c-62 -15 -153 -68 -197 -116 -22 -24 -55 -74 -72 -111
l-32 -67 0 -256 0 -255 37 -76 c45 -91 103 -147 196 -191 l67 -32 575 0 575 0
67 32 c93 44 151 100 196 191 l37 76 0 256 0 256 -37 76 c-45 91 -103 147
-196 191 l-67 32 -555 2 c-315 1 -572 -3 -594 -8z m1123 -165 c63 -18 132 -81
152 -140 10 -28 14 -95 14 -244 0 -236 -5 -261 -71 -326 -75 -75 -76 -75 -671
-72 -509 3 -519 3 -558 25 -47 25 -85 64 -111 113 -17 31 -19 60 -19 260 0
200 2 229 19 260 36 69 92 114 161 131 17 4 255 7 531 8 427 1 508 -1 553 -15z"/>
<path d="M2719 2777 c-18 -12 -44 -38 -56 -56 -22 -33 -23 -42 -23 -241 0
-199 1 -208 23 -241 12 -18 38 -44 56 -56 31 -21 45 -23 161 -23 116 0 130 2
161 23 18 12 44 38 56 56 22 33 23 42 23 241 0 199 -1 208 -23 241 -12 18 -38
44 -56 56 -31 21 -45 23 -161 23 -116 0 -130 -2 -161 -23z m241 -297 l0 -160
-80 0 -80 0 0 160 0 160 80 0 80 0 0 -160z"/>
<path d="M1789 1737 c-24 -13 -57 -43 -74 -66 l-30 -43 0 -148 0 -148 30 -43
c17 -23 50 -53 74 -66 40 -21 58 -23 171 -23 113 0 131 2 171 23 24 13 58 43
74 66 l30 43 0 148 0 148 -30 43 c-16 23 -50 53 -74 66 -40 21 -58 23 -171 23
-113 0 -131 -2 -171 -23z m275 -153 c12 -12 16 -37 16 -104 0 -67 -4 -92 -16
-104 -12 -12 -37 -16 -104 -16 -116 0 -120 4 -120 120 0 67 4 92 16 104 12 12
37 16 104 16 67 0 92 -4 104 -16z"/>
<path d="M2429 1737 c-24 -13 -57 -43 -74 -66 l-30 -43 0 -148 0 -148 30 -43
c17 -23 50 -53 74 -66 40 -21 58 -23 171 -23 113 0 131 2 171 23 24 13 58 43
74 66 l30 43 0 148 0 148 -30 43 c-16 23 -50 53 -74 66 -40 21 -58 23 -171 23
-113 0 -131 -2 -171 -23z m275 -153 c12 -12 16 -37 16 -104 0 -116 -4 -120
-120 -120 -116 0 -120 4 -120 120 0 67 4 92 16 104 12 12 37 16 104 16 67 0
92 -4 104 -16z"/>
<path d="M2985 1735 c-24 -23 -25 -28 -25 -175 0 -147 1 -152 25 -175 24 -25
26 -25 215 -25 189 0 191 0 215 25 24 23 25 28 25 175 0 147 -1 152 -25 175
-24 25 -26 25 -215 25 -189 0 -191 0 -215 -25z m295 -175 l0 -40 -80 0 -80 0
0 40 0 40 80 0 80 0 0 -40z"/>
<path d="M2985 1175 l-25 -24 0 -311 0 -311 25 -24 c24 -25 26 -25 215 -25
189 0 191 0 215 25 l25 24 0 311 0 311 -25 24 c-24 25 -26 25 -215 25 -189 0
-191 0 -215 -25z m295 -335 l0 -200 -80 0 -80 0 0 200 0 200 80 0 80 0 0 -200z"/>
<path d="M1789 1017 c-24 -13 -57 -43 -74 -66 l-30 -43 0 -148 0 -148 30 -43
c17 -23 50 -53 74 -66 40 -21 58 -23 171 -23 113 0 131 2 171 23 24 13 58 43
74 66 l30 43 0 148 0 148 -30 43 c-16 23 -50 53 -74 66 -40 21 -58 23 -171 23
-113 0 -131 -2 -171 -23z m275 -153 c12 -12 16 -37 16 -104 0 -67 -4 -92 -16
-104 -12 -12 -37 -16 -104 -16 -116 0 -120 4 -120 120 0 116 4 120 120 120 67
0 92 -4 104 -16z"/>
<path d="M2429 1017 c-24 -13 -57 -43 -74 -66 l-30 -43 0 -148 0 -148 30 -43
c17 -23 50 -53 74 -66 40 -21 58 -23 171 -23 113 0 131 2 171 23 24 13 58 43
74 66 l30 43 0 148 0 148 -30 43 c-16 23 -50 53 -74 66 -40 21 -58 23 -171 23
-113 0 -131 -2 -171 -23z m275 -153 c12 -12 16 -37 16 -104 0 -67 -4 -92 -16
-104 -12 -12 -37 -16 -104 -16 -116 0 -120 4 -120 120 0 116 4 120 120 120 67
0 92 -4 104 -16z"/>
<path d="M4400 1200 l0 -80 80 0 80 0 0 80 0 80 -80 0 -80 0 0 -80z"/>
</g>
</svg>
